<svg xmlns="http://www.w3.org/2000/svg" width="20" height="20" viewBox="0 0 20 20" fill="none">
  <g opacity="0.67">
    <path fill-rule="evenodd" clip-rule="evenodd" d="M1.66602 10.0003C1.66602 14.6027 5.39698 18.3337 9.99935 18.3337C14.5996 18.3286 18.3276 14.6006 18.3327 10.0003C18.3327 5.39795 14.6017 1.66699 9.99935 1.66699C5.39698 1.66699 1.66602 5.39795 1.66602 10.0003ZM3.38426 9.16699C3.64787 7.05301 4.90124 5.24641 6.66602 4.22554V9.16699H3.38426ZM8.33268 9.16699V3.54369C8.86538 3.40658 9.42385 3.33366 9.99935 3.33366C10.5749 3.33431 11.1333 3.40779 11.666 3.54539V9.16699H8.33268ZM11.666 10.8337H8.33268V16.457C8.86538 16.5941 9.42385 16.667 9.99935 16.667C10.5748 16.667 11.1333 16.5941 11.666 16.457V10.8337ZM13.3327 15.7751V10.8337H16.6144C16.3508 12.9476 15.0975 14.7542 13.3327 15.7751ZM13.3327 9.16699V4.22871C15.0956 5.25004 16.348 7.05491 16.6135 9.16699H13.3327ZM3.38426 10.8337H6.66602V15.7751C4.90124 14.7542 3.64787 12.9476 3.38426 10.8337ZM16.666 10.0066L16.666 10.0003L16.666 9.9981V10.0066Z" fill="white"/>
  </g>
</svg>