<svg xmlns="http://www.w3.org/2000/svg" width="32" height="32" viewBox="0 0 32 32" fill="none">
  <path d="M10.116 19.9464V20.3631H10.5327H13.5027V28.7832C7.5668 27.6184 3.08268 22.3698 3.08268 16.0797C3.08268 8.93624 8.8964 3.13639 15.9993 3.13639C23.1023 3.13639 28.916 8.93624 28.916 16.0797L28.916 16.0807C28.9229 19.1621 27.828 22.1445 25.8288 24.4895C23.9357 26.7101 21.3498 28.2206 18.496 28.7827V20.3631H21.186H21.543L21.5978 20.0103L22.1978 16.1436L22.2723 15.6631H21.786H18.496V13.5731C18.496 13.1076 18.6116 12.6985 18.8608 12.411C19.1005 12.1346 19.5166 11.9097 20.2527 11.9097H21.9327H22.3493V11.4931V8.19973V7.84676L22.0012 7.78873L21.9327 8.19973L22.0011 7.78872L22.001 7.7887L22.0007 7.78864L21.9996 7.78846L21.9958 7.78783L21.9817 7.78555L21.9288 7.77715C21.8828 7.76999 21.8161 7.75985 21.7318 7.74772C21.5631 7.72347 21.3234 7.69123 21.0377 7.65902C20.468 7.59478 19.7077 7.52973 18.9593 7.52973C17.3491 7.52973 15.9734 8.01645 14.9997 8.9901C14.0256 9.9642 13.5027 11.3769 13.5027 13.1331V15.6631H10.5327H10.116V16.0797V19.9464Z" fill="#4660F1" stroke="#4660F1" stroke-width="0.833333"/>
</svg>