<svg xmlns="http://www.w3.org/2000/svg" width="32" height="32" viewBox="0 0 32 32" fill="none">
  <path d="M16.288 3C10.7422 3 9.12024 3.00572 8.80496 3.03187C7.66687 3.12648 6.95868 3.30567 6.18715 3.6898C5.59257 3.98505 5.12364 4.32729 4.66084 4.80705C3.818 5.68197 3.30719 6.75835 3.12228 8.03784C3.03237 8.65898 3.00622 8.78567 3.00091 11.9584C2.99886 13.016 3.00091 14.4079 3.00091 16.2748C3.00091 21.8161 3.00704 23.4364 3.0336 23.751C3.12555 24.8585 3.29922 25.5552 3.66701 26.3174C4.36989 27.7762 5.7123 28.8714 7.29378 29.2801C7.84137 29.4211 8.44617 29.4987 9.2226 29.5355C9.55157 29.5498 12.9045 29.56 16.2596 29.56C19.6146 29.56 22.9696 29.5559 23.2904 29.5396C24.1894 29.4973 24.7115 29.4272 25.2887 29.278C26.8804 28.8673 28.1983 27.7885 28.9154 26.3092C29.2761 25.5654 29.4589 24.8421 29.5417 23.7925C29.5597 23.5637 29.5672 19.915 29.5672 16.2713C29.5672 12.627 29.5591 8.98509 29.5411 8.75624C29.4573 7.68967 29.2744 6.97249 28.9022 6.21444C28.5967 5.59391 28.2575 5.1305 27.7651 4.65667C26.8863 3.8173 25.8115 3.30649 24.5308 3.12178C23.9103 3.03208 23.7867 3.00552 20.6115 3H16.288Z" fill="url(#paint0_radial_2_17286)"/>
  <path d="M16.288 3C10.7422 3 9.12024 3.00572 8.80496 3.03187C7.66687 3.12648 6.95868 3.30567 6.18715 3.6898C5.59257 3.98505 5.12364 4.32729 4.66084 4.80705C3.818 5.68197 3.30719 6.75835 3.12228 8.03784C3.03237 8.65898 3.00622 8.78567 3.00091 11.9584C2.99886 13.016 3.00091 14.4079 3.00091 16.2748C3.00091 21.8161 3.00704 23.4364 3.0336 23.751C3.12555 24.8585 3.29922 25.5552 3.66701 26.3174C4.36989 27.7762 5.7123 28.8714 7.29378 29.2801C7.84137 29.4211 8.44617 29.4987 9.2226 29.5355C9.55157 29.5498 12.9045 29.56 16.2596 29.56C19.6146 29.56 22.9696 29.5559 23.2904 29.5396C24.1894 29.4973 24.7115 29.4272 25.2887 29.278C26.8804 28.8673 28.1983 27.7885 28.9154 26.3092C29.2761 25.5654 29.4589 24.8421 29.5417 23.7925C29.5597 23.5637 29.5672 19.915 29.5672 16.2713C29.5672 12.627 29.5591 8.98509 29.5411 8.75624C29.4573 7.68967 29.2744 6.97249 28.9022 6.21444C28.5967 5.59391 28.2575 5.1305 27.7651 4.65667C26.8863 3.8173 25.8115 3.30649 24.5308 3.12178C23.9103 3.03208 23.7867 3.00552 20.6115 3H16.288Z" fill="url(#paint1_radial_2_17286)"/>
  <path d="M16.2811 6.47363C13.6175 6.47363 13.2832 6.48528 12.2371 6.53289C11.193 6.5807 10.4803 6.746 9.85669 6.98853C9.21163 7.23903 8.66445 7.57413 8.11931 8.11947C7.57376 8.66461 7.23867 9.21179 6.98735 9.85664C6.7442 10.4804 6.5787 11.1933 6.53171 12.237C6.48492 13.2832 6.47266 13.6177 6.47266 16.2812C6.47266 18.9448 6.48451 19.2781 6.53191 20.3242C6.57993 21.3683 6.74523 22.081 6.98756 22.7046C7.23826 23.3496 7.57335 23.8968 8.1187 24.442C8.66363 24.9875 9.21082 25.3234 9.85546 25.5739C10.4795 25.8165 11.1924 25.9818 12.2363 26.0296C13.2824 26.0772 13.6165 26.0888 16.2798 26.0888C18.9436 26.0888 19.2769 26.0772 20.323 26.0296C21.3671 25.9818 22.0806 25.8165 22.7046 25.5739C23.3495 25.3234 23.8959 24.9875 24.4408 24.442C24.9863 23.8968 25.3214 23.3497 25.5728 22.7048C25.8139 22.081 25.9794 21.3681 26.0284 20.3244C26.0754 19.2783 26.0877 18.9448 26.0877 16.2812C26.0877 13.6177 26.0754 13.2834 26.0284 12.2372C25.9794 11.1931 25.8139 10.4804 25.5728 9.85685C25.3214 9.21179 24.9863 8.66461 24.4408 8.11947C23.8952 7.57392 23.3497 7.23883 22.704 6.98853C22.0788 6.746 21.3657 6.5807 20.3216 6.53289C19.2755 6.48528 18.9424 6.47363 16.278 6.47363H16.2811ZM15.4012 8.24104C15.6624 8.24064 15.9537 8.24104 16.2811 8.24104C18.8997 8.24104 19.2101 8.25044 20.2442 8.29744C21.2004 8.34116 21.7194 8.50095 22.0651 8.63519C22.5228 8.81295 22.8491 9.02545 23.1922 9.36871C23.5354 9.71198 23.7479 10.0389 23.9261 10.4966C24.0603 10.8419 24.2203 11.3609 24.2638 12.3171C24.3108 13.351 24.3211 13.6616 24.3211 16.279C24.3211 18.8964 24.3108 19.207 24.2638 20.2408C24.2201 21.1971 24.0603 21.7161 23.9261 22.0614C23.7483 22.5191 23.5354 22.845 23.1922 23.188C22.8489 23.5313 22.523 23.7438 22.0651 23.9216C21.7198 24.0564 21.2004 24.2158 20.2442 24.2595C19.2103 24.3065 18.8997 24.3167 16.2811 24.3167C13.6622 24.3167 13.3519 24.3065 12.318 24.2595C11.3617 24.2154 10.8428 24.0556 10.4968 23.9214C10.0391 23.7436 9.71223 23.5311 9.36896 23.1878C9.0257 22.8446 8.8132 22.5185 8.63503 22.0606C8.50079 21.7153 8.3408 21.1963 8.29728 20.24C8.25028 19.2061 8.24088 18.8956 8.24088 16.2765C8.24088 13.6575 8.25028 13.3486 8.29728 12.3147C8.341 11.3584 8.50079 10.8394 8.63503 10.4937C8.81279 10.036 9.0257 9.70912 9.36896 9.36585C9.71223 9.02259 10.0391 8.81009 10.4968 8.63192C10.8426 8.49706 11.3617 8.33769 12.318 8.29376C13.2227 8.25289 13.5734 8.24064 15.4012 8.23859V8.24104ZM21.5163 9.86951C20.8665 9.86951 20.3394 10.3961 20.3394 11.046C20.3394 11.6958 20.8665 12.2229 21.5163 12.2229C22.166 12.2229 22.6932 11.6958 22.6932 11.046C22.6932 10.3963 22.166 9.86911 21.5163 9.86911V9.86951ZM16.2811 11.2446C13.4996 11.2446 11.2445 13.4998 11.2445 16.2812C11.2445 19.0627 13.4996 21.3168 16.2811 21.3168C19.0625 21.3168 21.3169 19.0627 21.3169 16.2812C21.3169 13.4998 19.0623 11.2446 16.2809 11.2446H16.2811ZM16.2811 13.012C18.0865 13.012 19.5503 14.4756 19.5503 16.2812C19.5503 18.0866 18.0865 19.5504 16.2811 19.5504C14.4755 19.5504 13.0119 18.0866 13.0119 16.2812C13.0119 14.4756 14.4755 13.012 16.2811 13.012Z" fill="white"/>
  <defs>
    <radialGradient id="paint0_radial_2_17286" cx="0" cy="0" r="1" gradientUnits="userSpaceOnUse" gradientTransform="translate(10.057 31.6057) rotate(-90) scale(26.3229 24.4891)">
      <stop stop-color="#FFDD55"/>
      <stop offset="0.1" stop-color="#FFDD55"/>
      <stop offset="0.5" stop-color="#FF543E"/>
      <stop offset="1" stop-color="#C837AB"/>
    </radialGradient>
    <radialGradient id="paint1_radial_2_17286" cx="0" cy="0" r="1" gradientUnits="userSpaceOnUse" gradientTransform="translate(-1.45015 4.91334) rotate(78.6776) scale(11.7666 48.5145)">
      <stop stop-color="#3771C8"/>
      <stop offset="0.128" stop-color="#3771C8"/>
      <stop offset="1" stop-color="#6600FF" stop-opacity="0"/>
    </radialGradient>
  </defs>
</svg>