<svg xmlns="http://www.w3.org/2000/svg" width="127" height="32" viewBox="0 0 127 32" fill="none">
  <path d="M19.2227 15.8431L19.2226 15.8615L19.2227 15.8915L19.2226 15.9239C19.2226 15.9303 19.2226 15.9368 19.2226 15.9433L19.2225 15.9517H9.61128L13.5708 11.9841C12.5607 10.9691 11.1597 10.3405 9.61134 10.3405C6.54262 10.3405 4.05308 12.8096 4.03683 15.8615C4.05308 18.9326 6.54262 21.4173 9.61134 21.4173C11.7555 21.4173 13.6169 20.2043 14.5494 18.4258L18.1745 20.2421C16.614 23.2817 13.4692 25.3809 9.82463 25.4599L9.74479 25.4614C9.70039 25.462 9.65586 25.4623 9.61134 25.4623C9.57502 25.4623 9.53883 25.4621 9.50263 25.4617L9.48709 25.4615C4.23617 25.3953 0 21.136 0 15.8915V15.8803L5.86629e-05 15.8615L0 15.8313C0 10.5123 4.30316 6.20039 9.61134 6.20039C14.9195 6.20039 19.2227 10.5123 19.2227 15.8313V15.8431Z" fill="black"/>
  <path d="M27.3892 24.3182L18.9898 5.88363H23.6689L28.6974 17.6727L33.7559 5.88363H38.2433L29.8438 24.3182H27.3892Z" fill="black"/>
  <path fill-rule="evenodd" clip-rule="evenodd" d="M42.9955 23.4353C44.453 24.2802 46.0766 24.7027 47.8664 24.7027C49.6818 24.7027 51.3183 24.2802 52.7757 23.4353C54.2331 22.5648 55.3837 21.3998 56.2275 19.9404C57.0969 18.481 57.5315 16.8552 57.5315 15.0629C57.5315 13.2707 57.0969 11.6577 56.2275 10.2239C55.3837 8.76446 54.2331 7.61229 52.7757 6.76738C51.3183 5.92246 49.6818 5.5 47.8664 5.5C46.0766 5.5 44.453 5.93526 42.9955 6.80578C41.5381 7.6507 40.3747 8.79006 39.5054 10.2239C38.6616 11.6577 38.2397 13.2707 38.2397 15.0629C38.2397 16.8552 38.6616 18.481 39.5054 19.9404C40.3747 21.3998 41.5381 22.5648 42.9955 23.4353ZM50.6279 19.9404C49.8353 20.4013 48.9148 20.6317 47.8664 20.6317C46.8437 20.6317 45.9232 20.4013 45.105 19.9404C44.3123 19.4539 43.6859 18.7883 43.2257 17.9433C42.791 17.0984 42.5736 16.1383 42.5736 15.0629C42.5736 13.9876 42.791 13.0403 43.2257 12.2209C43.6859 11.4016 44.3123 10.7615 45.105 10.3007C45.9232 9.8142 46.8437 9.57097 47.8664 9.57097C48.9148 9.57097 49.8353 9.8142 50.6279 10.3007C51.4205 10.7615 52.047 11.4016 52.5072 12.2209C52.9675 13.0403 53.1976 13.9876 53.1976 15.0629C53.1976 16.1383 52.9675 17.0984 52.5072 17.9433C52.0725 18.7883 51.4461 19.4539 50.6279 19.9404Z" fill="black"/>
  <path d="M104.896 24.3186V13.6803C104.896 12.4514 104.499 11.44 103.707 10.6463C102.94 9.85261 101.942 9.45575 100.715 9.45575C99.8969 9.45575 99.1682 9.63498 98.529 9.99343C97.8897 10.3519 97.3911 10.8511 97.0332 11.4912C96.6752 12.1313 96.4962 12.861 96.4962 13.6803V24.3186H92.2774V5.88405H96.4962V7.96691C96.9999 7.36186 97.6007 6.8596 98.2989 6.46013C99.3983 5.82004 100.626 5.5 101.981 5.5C103.362 5.5 104.589 5.85845 105.663 6.57535C106.737 7.26665 107.58 8.17557 108.194 9.30213C108.808 10.4031 109.115 11.5552 109.115 12.7586V24.3186H104.896Z" fill="black"/>
  <path fill-rule="evenodd" clip-rule="evenodd" d="M68.7491 24.7027C67.0871 24.7027 65.5786 24.2802 64.2234 23.4353C62.8938 22.5904 61.8327 21.451 61.04 20.0172C60.273 18.5578 59.8894 16.932 59.8894 15.1397C59.8894 13.3219 60.273 11.6961 61.04 10.2623C61.8327 8.80286 62.8938 7.6507 64.2234 6.80578C65.5786 5.93526 67.0871 5.5 68.7491 5.5C70.1554 5.5 71.3955 5.80724 72.4694 6.42173C73.2142 6.82067 73.8535 7.32536 74.3871 7.93581V5.88405H78.606V27.8468L74.4587 31.9997H74.3871V22.2952C73.8692 22.9005 73.2428 23.4086 72.5078 23.8194C71.4083 24.4082 70.1554 24.7027 68.7491 24.7027ZM69.4395 20.7085C70.9992 20.7085 72.2521 20.1837 73.1981 19.1339C74.1697 18.0842 74.6556 16.74 74.6556 15.1013C74.6556 14.0004 74.4382 13.0274 74.0035 12.1825C73.5689 11.3376 72.9552 10.6847 72.1626 10.2239C71.3955 9.73739 70.4878 9.49416 69.4395 9.49416C68.4167 9.49416 67.509 9.73739 66.7164 10.2239C65.9493 10.6847 65.3356 11.3376 64.8754 12.1825C64.4407 13.0274 64.2234 14.0004 64.2234 15.1013C64.2234 16.2023 64.4407 17.1752 64.8754 18.0201C65.3356 18.8651 65.9493 19.5308 66.7164 20.0172C67.509 20.4781 68.4167 20.7085 69.4395 20.7085Z" fill="black"/>
  <path d="M83.298 6.08349H87.4921V24.2947H83.298V6.08349Z" fill="black"/>
  <path d="M123.527 6.30651C124.462 6.72267 125.271 7.31637 125.952 8.08764L123.239 10.8068C122.824 10.3997 122.371 10.0774 121.878 9.83981C121.187 9.50696 120.395 9.34053 119.5 9.34053C118.656 9.34053 118.004 9.46855 117.544 9.72459C117.084 9.98063 116.854 10.3519 116.854 10.8383C116.854 11.3504 117.084 11.7473 117.544 12.0289C118.004 12.3105 118.592 12.5538 119.308 12.7586C120.05 12.9634 120.817 13.1939 121.609 13.4499C122.428 13.6803 123.195 14.0132 123.911 14.4485C124.652 14.8581 125.253 15.4214 125.713 16.1383C126.173 16.8296 126.404 17.7385 126.404 18.8651C126.404 20.6573 125.777 22.0783 124.524 23.1281C123.271 24.1778 121.571 24.7027 119.423 24.7027C118.4 24.7027 117.416 24.5747 116.47 24.3186C115.524 24.037 114.655 23.6529 113.862 23.1665C113.296 22.8008 112.782 22.3828 112.32 21.9126L115.022 19.2054C115.521 19.6728 116.068 20.0458 116.662 20.3245C117.506 20.6829 118.452 20.8621 119.5 20.8621C120.446 20.8621 121.162 20.7213 121.648 20.4397C122.134 20.158 122.376 19.7484 122.376 19.2107C122.376 18.6474 122.146 18.2122 121.686 17.9049C121.226 17.5977 120.625 17.3417 119.883 17.1368C119.168 16.9064 118.4 16.676 117.582 16.4455C116.79 16.2151 116.023 15.9078 115.281 15.5238C114.565 15.1141 113.977 14.5637 113.517 13.8724C113.057 13.1811 112.826 12.2849 112.826 11.184C112.826 10.0062 113.095 8.99489 113.632 8.14997C114.194 7.30505 114.974 6.65216 115.971 6.1913C116.994 5.73043 118.209 5.5 119.615 5.5C121.098 5.5 122.402 5.76884 123.527 6.30651Z" fill="black"/>
  <path d="M87.5388 0H83.2988V4.23995L87.5388 0Z" fill="#FFD42D"/>
</svg>