<svg xmlns="http://www.w3.org/2000/svg" width="56" height="56" viewBox="0 0 56 56" fill="none">
  <g filter="url(#filter0_d_2_17531)">
    <path d="M24 34C18.4772 34 14 29.5228 14 24C14 18.4772 18.4772 14 24 14C29.5228 14 34 18.4772 34 24C33.9939 29.5203 29.5203 33.9939 24 34ZM16 24.172C16.0473 28.5732 19.6411 32.1095 24.0425 32.086C28.444 32.0622 31.9995 28.4875 31.9995 24.086C31.9995 19.6845 28.444 16.1098 24.0425 16.086C19.6411 16.0625 16.0473 19.5988 16 24V24.172ZM25 29H23V25H19V23H23V19H25V23H29V25H25V29Z" fill="url(#paint0_linear_2_17531)"/>
  </g>
  <defs>
    <filter id="filter0_d_2_17531" x="0" y="0" width="56" height="56" filterUnits="userSpaceOnUse" color-interpolation-filters="sRGB">
      <feFlood flood-opacity="0" result="BackgroundImageFix"/>
      <feColorMatrix in="SourceAlpha" type="matrix" values="0 0 0 0 0 0 0 0 0 0 0 0 0 0 0 0 0 0 127 0" result="hardAlpha"/>
      <feOffset dx="4" dy="4"/>
      <feGaussianBlur stdDeviation="8"/>
      <feComposite in2="hardAlpha" operator="out"/>
      <feColorMatrix type="matrix" values="0 0 0 0 0 0 0 0 0 0 0 0 0 0 0 0 0 0 0.12 0"/>
      <feBlend mode="normal" in2="BackgroundImageFix" result="effect1_dropShadow_2_17531"/>
      <feBlend mode="normal" in="SourceGraphic" in2="effect1_dropShadow_2_17531" result="shape"/>
    </filter>
    <linearGradient id="paint0_linear_2_17531" x1="14" y1="23.9999" x2="42.0769" y2="24" gradientUnits="userSpaceOnUse">
      <stop offset="0.00292398" stop-color="#4660F1"/>
      <stop offset="1" stop-color="#8800DC"/>
    </linearGradient>
  </defs>
</svg>