<svg xmlns="http://www.w3.org/2000/svg" width="30" height="30" viewBox="0 0 30 30" fill="none">
  <path d="M15.0006 4.50002H15C9.20101 4.50002 4.5 9.20103 4.5 15C4.5 20.799 9.20101 25.5 15 25.5C20.799 25.5 25.5 20.799 25.5 15V14.9995C25.4935 9.20348 20.7965 4.50653 15.0006 4.50002ZM16.4625 15.75H9.25V14.25H16.4625H17.6663L16.8167 13.3972L13.9439 10.5132L15 9.45713L20.5429 15L15 20.5429L13.9439 19.4868L16.8167 16.6029L17.6663 15.75H16.4625ZM15.0005 27C8.37588 26.9927 3.00742 21.6243 3 14.9997V14.7551C3.13453 8.16283 8.56305 2.91359 15.1567 3.00108C21.752 3.08859 27.0403 8.48269 26.9972 15.0784C26.9542 21.674 21.5961 26.9984 15.0005 27Z" fill="#4660F1" stroke="#4660F1"/>
</svg>