<svg xmlns="http://www.w3.org/2000/svg" width="20" height="20" viewBox="0 0 20 20" fill="none">
  <g clip-path="url(#clip0_2_16684)">
    <path d="M16.004 14.0739C15.858 13.9279 15.838 13.6759 15.95 13.5019C16.83 12.1479 17.346 10.5359 17.346 8.80388C17.346 4.01988 13.454 0.129883 8.674 0.129883C3.89 0.129883 0 4.01988 0 8.80388C0 13.5859 3.89 17.4759 8.674 17.4759C10.536 17.4759 12.26 16.8779 13.676 15.8739C13.842 15.7539 14.092 15.7699 14.238 15.9139L17.338 19.0139C17.358 19.0339 17.38 19.0539 17.402 19.0699C17.438 19.0999 17.588 19.2399 17.732 19.3859L18.1 19.7519C18.246 19.8959 18.482 19.8959 18.626 19.7519L19.89 18.4879C20.036 18.3419 20.036 18.1059 19.892 17.9599L16.004 14.0739ZM13.92 12.8439C13.634 13.2159 13.312 13.5559 12.956 13.8579C11.8 14.8399 10.306 15.4359 8.674 15.4359C5.016 15.4359 2.04 12.4599 2.04 8.80388C2.04 5.14788 5.016 2.16988 8.674 2.16988C12.33 2.16988 15.306 5.14588 15.306 8.80388C15.306 10.3239 14.784 11.7239 13.92 12.8439Z" fill="white"/>
  </g>
  <defs>
    <clipPath id="clip0_2_16684">
      <rect width="20" height="20" fill="white"/>
    </clipPath>
  </defs>
</svg>